<?xml version="1.0" encoding="UTF-8"?>
<svg version="1.1" xmlns="http://www.w3.org/2000/svg" width="1440" height="798">
<path d="M0 0 C475.2 0 950.4 0 1440 0 C1440 263.34 1440 526.68 1440 798 C964.8 798 489.6 798 0 798 C0 534.66 0 271.32 0 0 Z " fill="none" transform="translate(0,0)"/>
<path d="M0 0 C0.97292846 -0.00085442 1.94585692 -0.00170885 2.94826806 -0.00258917 C6.2048802 -0.00423488 9.46144071 0.00126256 12.7180481 0.00672913 C15.05387877 0.00701122 17.38970954 0.00685283 19.72554016 0.00628662 C26.0658995 0.00599951 32.40623996 0.01188233 38.74659491 0.01886058 C44.70164454 0.02447546 50.65669345 0.02548371 56.61174537 0.02651245 C68.40483292 0.02869965 80.19791353 0.03535075 91.99099731 0.04481506 C103.44509853 0.05399776 114.89919785 0.0610744 126.353302 0.06532288 C127.05964361 0.0655856 127.76598522 0.06584832 128.49373113 0.06611901 C132.0373322 0.06742407 135.58093328 0.06868777 139.12453437 0.06993091 C168.51003962 0.0802932 197.89553761 0.09817822 227.28103638 0.12025452 C227.28103638 8.70025452 227.28103638 17.28025452 227.28103638 26.12025452 C224.35914459 26.12167953 221.43725281 26.12310455 218.42681885 26.12457275 C191.61076807 26.13996184 164.7948252 26.18010059 137.97885615 26.24711014 C134.4617448 26.25587652 130.94463296 26.26442639 127.42752075 26.27284241 C126.3772637 26.275361 126.3772637 26.275361 125.30578934 26.27793048 C113.97994988 26.30457478 102.65416104 26.31369371 91.32829346 26.31629594 C79.70034428 26.3193592 68.07255008 26.34171963 56.44466579 26.38077909 C49.91616632 26.40210066 43.38791341 26.41471378 36.85937881 26.40640831 C30.71153972 26.39886321 24.56420002 26.41471083 18.41645241 26.44831467 C16.16308755 26.45654221 13.90967299 26.45630471 11.65631294 26.44685173 C8.57198756 26.43519628 5.48928975 26.4544005 2.40509033 26.48101807 C1.07722368 26.46500818 1.07722368 26.46500818 -0.27746856 26.44867486 C-8.2134524 26.57586357 -14.44270767 29.48500517 -20.59396362 34.43275452 C-25.58554409 40.7456357 -27.47335211 45.92939859 -27.16427612 54.08900452 C-26.05783461 61.62057128 -22.40908593 67.22072132 -16.56271362 71.96400452 C-11.42064973 75.18868865 -6.8256966 75.44989402 -0.91818237 75.53431702 C0.1947821 75.56078308 0.1947821 75.56078308 1.33023071 75.58778381 C4.08445124 75.65053642 6.83902475 75.69693979 9.59353638 75.74525452 C15.76041138 75.86900452 21.92728638 75.99275452 28.28103638 76.12025452 C28.28103638 62.26025452 28.28103638 48.40025452 28.28103638 34.12025452 C36.86103638 34.12025452 45.44103638 34.12025452 54.28103638 34.12025452 C54.28103638 47.98025452 54.28103638 61.84025452 54.28103638 76.12025452 C61.1407019 76.10978088 68.00036743 76.09930725 75.06790161 76.08851624 C97.03159687 76.056397 118.99529333 76.03416132 140.95900604 76.01812386 C144.37225775 76.01562253 147.78550938 76.01303388 151.19876099 76.01039124 C152.21801005 76.0096043 152.21801005 76.0096043 153.25785 76.00880148 C164.25134255 76.00010562 175.24481412 75.98434017 186.23829424 75.96594892 C197.52376959 75.94722705 208.80923449 75.9362826 220.09472615 75.93207753 C226.43143684 75.92947092 232.7681 75.92334719 239.10479546 75.9087944 C245.0710607 75.89520356 251.03725888 75.89103495 257.00353813 75.89403915 C259.19122685 75.89348967 261.37891785 75.88952122 263.56659317 75.88184357 C266.55880525 75.8718589 269.55076582 75.87429855 272.54298401 75.87974548 C273.40390465 75.8739198 274.26482529 75.86809412 275.15183443 75.8620919 C283.94097822 75.9051873 291.29944716 77.65064476 298.96853638 81.93275452 C299.59308716 82.26339905 300.21763794 82.59404358 300.8611145 82.93470764 C313.69016381 89.91896541 320.88627054 100.8291287 325.39822388 114.50697327 C328.65631602 127.84208493 325.94156859 141.76372667 319.05838013 153.46009827 C311.06314213 165.42659734 300.37213091 173.51743693 286.23025513 176.74525452 C282.60754366 177.20589068 278.9329159 177.12025452 275.28103638 177.12025452 C275.28103638 168.54025452 275.28103638 159.96025452 275.28103638 151.12025452 C277.30228638 150.56337952 279.32353638 150.00650452 281.40603638 149.43275452 C287.68807187 147.47516039 291.9639958 145.95691261 295.48416138 140.12806702 C298.84734318 133.66223158 300.4413705 127.85027895 298.66775513 120.62025452 C296.43601692 114.17082605 293.09685694 109.76290369 287.28103638 106.12025452 C282.08879223 103.94751686 277.47066219 103.82942605 271.94171143 103.84178162 C271.00961849 103.83598921 270.07752556 103.83019681 269.11718738 103.82422888 C265.99875417 103.8072446 262.88046911 103.8043537 259.76199341 103.80140686 C257.52467995 103.79210761 255.28736996 103.78193895 253.05006409 103.77096558 C246.97830634 103.74365122 240.90657182 103.72851184 234.83476877 103.71553755 C228.48861431 103.69991335 222.14250731 103.67312084 215.79638672 103.64750671 C205.14544948 103.60602453 194.49451225 103.57143369 183.84353638 103.54212952 C172.87444188 103.5119312 161.90537336 103.47757505 150.93630981 103.43763733 C149.92160233 103.43394501 149.92160233 103.43394501 148.88639571 103.43017809 C145.49263509 103.41780324 142.09887477 103.40534675 138.7051146 103.39284968 C110.5637869 103.28932855 82.422437 103.20173547 54.28103638 103.12025452 C54.28103638 127.87025452 54.28103638 152.62025452 54.28103638 178.12025452 C45.70103638 178.12025452 37.12103638 178.12025452 28.28103638 178.12025452 C27.95103638 153.37025452 27.62103638 128.62025452 27.28103638 103.12025452 C13.99946507 102.98959017 13.99946507 102.98959017 0.71755981 102.91249084 C-9.45822825 102.7919929 -17.71171388 102.28588109 -26.71896362 97.12025452 C-27.51657104 96.66690735 -28.31417847 96.21356018 -29.13595581 95.74647522 C-42.3776761 87.95600445 -48.95583354 76.40964477 -53.71896362 62.12025452 C-55.02715163 45.96729028 -53.66077946 33.25943827 -43.71896362 20.12025452 C-43.04220581 19.1959967 -43.04220581 19.1959967 -42.35177612 18.25306702 C-31.89789059 4.96422948 -16.289744 -0.052449 0 0 Z " fill="#262223" transform="translate(584.7189636230469,152.87974548339844)"/>
<path d="M0 0 C38.79838761 -0.08060607 38.79838761 -0.08060607 55.0625 -0.09765625 C66.29038318 -0.10952134 77.51823633 -0.12346645 88.74609375 -0.15087891 C96.92344641 -0.17083411 105.1007747 -0.18372151 113.27815104 -0.18817699 C117.60666325 -0.19078075 121.93510574 -0.19688625 126.26359558 -0.21146011 C130.3412607 -0.22507768 134.41882766 -0.22921422 138.49651337 -0.22621536 C139.98961165 -0.22676366 141.48271337 -0.23071619 142.97579193 -0.23841095 C156.06436384 -0.30253176 167.2463069 1.11108027 177.328125 10.15234375 C185.45242743 19.13083685 186.70042578 28.30851075 186.21435547 39.92382812 C185.82930462 43.65329556 184.44741551 46.75558901 182.6796875 50.01953125 C181.79169138 51.99388266 181.79169138 51.99388266 182.5703125 54.01171875 C183.97789063 56.15926816 183.97789063 56.15926816 186.390625 57.90234375 C189.26149918 60.21021716 190.82712557 62.43570198 192.75 65.5625 C193.34296875 66.51253906 193.9359375 67.46257812 194.546875 68.44140625 C198.45192487 75.3172333 197.89174421 84.29993905 197 92 C194.2644956 101.5533837 188.17800423 108.20240958 179.8203125 113.33984375 C173.91633386 116.47006638 168.66290649 117.12521374 161.98283386 117.12025452 C161.28844139 117.12110894 160.59404892 117.12196337 159.87861425 117.12284368 C157.55861673 117.12448698 155.23869199 117.118996 152.91870117 117.11352539 C151.25296022 117.11324324 149.58721915 117.11340179 147.92147827 117.1139679 C143.40331251 117.1142548 138.88517329 117.1083753 134.36701369 117.10139394 C129.64379114 117.09514264 124.92056797 117.09455519 120.19734192 117.09336853 C111.25497082 117.09026046 102.31261195 117.08205412 93.37024623 117.07201904 C81.28520102 117.05875165 69.20015247 117.05335376 57.11510181 117.04751682 C38.07672539 117.03811389 19.03837476 117.01819146 0 117 C0 78.39 0 39.78 0 0 Z " fill="#272324" transform="translate(1145,488)"/>
<path d="M0 0 C41.85694009 -0.20151517 41.85694009 -0.20151517 59.43945312 -0.24414062 C71.56464246 -0.27377245 83.68965766 -0.30854767 95.81469727 -0.37719727 C104.64655962 -0.42717752 113.47828028 -0.45932538 122.31028014 -0.47044247 C126.98283141 -0.47693656 131.65497746 -0.49209985 136.3273983 -0.52865028 C140.73433367 -0.56284137 145.14070077 -0.57300685 149.5477562 -0.56553841 C151.15649705 -0.56690271 152.76525891 -0.57669679 154.3738842 -0.59602737 C166.89600575 -0.73899534 178.85172896 0.87494529 188.28125 9.96484375 C196.21537802 19.3595726 197.69993565 28.02242245 197.18359375 39.93701172 C196.52080636 47.38455615 192.48733373 53.26618467 188 59 C188.48210937 59.66386719 188.96421875 60.32773437 189.4609375 61.01171875 C190.09257813 61.89472656 190.72421875 62.77773438 191.375 63.6875 C192.00148438 64.55761719 192.62796875 65.42773438 193.2734375 66.32421875 C197.09316649 72.24393449 197.27293575 77.01571043 197.1953125 83.89453125 C197.1924826 84.84188644 197.18965271 85.78924164 197.18673706 86.76530457 C197.17557187 89.78116666 197.15047389 92.79672816 197.125 95.8125 C197.11496547 97.86132383 197.10584045 99.91015232 197.09765625 101.95898438 C197.07564449 106.97277148 197.04113971 111.98633483 197 117 C191.06 117 185.12 117 179 117 C178.96132812 112.88144531 178.96132812 112.88144531 178.921875 108.6796875 C178.88341818 106.00868656 178.83826975 103.3378763 178.79248047 100.66699219 C178.76432502 98.81649947 178.74308354 96.96588771 178.72900391 95.11523438 C178.7074988 92.4486012 178.6608114 89.78339116 178.609375 87.1171875 C178.60753204 85.88402298 178.60753204 85.88402298 178.60565186 84.62594604 C178.47185614 79.33103857 177.65776265 76.09721386 174 72 C169.71566669 69.442426 166.54885343 68.62206388 161.58389282 68.60127258 C160.31352173 68.58873444 159.04315063 68.57619629 157.73428345 68.5632782 C156.33929417 68.56445207 154.94430512 68.56591115 153.54931641 68.56762695 C152.07060937 68.55860444 150.59190981 68.54827602 149.11322021 68.53674316 C145.10955111 68.50920428 141.10602404 68.49989291 137.10227251 68.49388909 C132.91418377 68.4844973 128.72620078 68.45829326 124.53817749 68.43388367 C116.61230483 68.39023711 108.68645272 68.36167883 100.7604965 68.33856028 C91.73507518 68.31149872 82.70976035 68.2675878 73.6844151 68.22227156 C55.12298568 68.12945163 36.56156659 68.05998292 18 68 C18 84.17 18 100.34 18 117 C12.06 117 6.12 117 0 117 C0 78.39 0 39.78 0 0 Z " fill="#272324" transform="translate(936,488)"/>
<path d="M0 0 C41.85694009 -0.20151517 41.85694009 -0.20151517 59.43945312 -0.24414062 C71.56464246 -0.27377245 83.68965766 -0.30854767 95.81469727 -0.37719727 C104.64655962 -0.42717752 113.47828028 -0.45932538 122.31028014 -0.47044247 C126.98283141 -0.47693656 131.65497746 -0.49209985 136.3273983 -0.52865028 C140.73433367 -0.56284137 145.14070077 -0.57300685 149.5477562 -0.56553841 C151.15649705 -0.56690271 152.76525891 -0.57669679 154.3738842 -0.59602737 C166.48967182 -0.73435613 177.08053974 0.89073781 186.9375 8.5625 C194.29346442 15.87774875 197.56999925 23.71852855 197.75 34 C197.58829072 43.23668035 195.12734072 50.39379655 188.87890625 57.3671875 C181.04064279 64.78433108 173.44243571 68.12921233 162.66618347 68.12025452 C161.38877289 68.12162918 160.1113623 68.12300385 158.79524231 68.12442017 C157.38717628 68.12088148 155.97911048 68.11724667 154.57104492 68.11352539 C153.08264162 68.1132432 151.59423818 68.11340187 150.10583496 68.1139679 C146.07112353 68.11425463 142.03644187 68.10837788 138.00173736 68.10139394 C133.78300487 68.09513982 129.56427169 68.09455497 125.34553528 68.09336853 C117.35939459 68.09026129 109.3732676 68.08205607 101.38713294 68.07201904 C92.29408426 68.06083907 83.20103493 68.0553427 74.10798109 68.05032361 C55.40531138 68.03987296 36.70266045 68.02153501 18 68 C18 84.17 18 100.34 18 117 C12.06 117 6.12 117 0 117 C0 78.39 0 39.78 0 0 Z " fill="#272324" transform="translate(517,488)"/>
<path d="M0 0 C65.34 0 130.68 0 198 0 C198 6.27 198 12.54 198 19 C138.6 19 79.2 19 18 19 C18 29.23 18 39.46 18 50 C77.4 50 136.8 50 198 50 C198 55.94 198 61.88 198 68 C138.6 68 79.2 68 18 68 C18 78.23 18 88.46 18 99 C77.4 99 136.8 99 198 99 C198 104.94 198 110.88 198 117 C132.66 117 67.32 117 0 117 C0 78.39 0 39.78 0 0 Z " fill="#272324" transform="translate(727,488)"/>
<path d="M0 0 C27.60853479 -0.06783937 55.21700161 -0.12305296 82.82559872 -0.15543652 C95.64605134 -0.17087545 108.46644833 -0.19190791 121.28686523 -0.22631836 C132.46705828 -0.25631197 143.64721101 -0.27559659 154.82744318 -0.28226548 C160.74190011 -0.2861609 166.65624174 -0.29525323 172.57066154 -0.31719017 C178.14957036 -0.33771295 183.72831753 -0.34380219 189.30726051 -0.33932304 C191.3432389 -0.34014123 193.37922329 -0.34601198 195.41516876 -0.35761642 C221.74912676 -0.50021758 244.83993024 4.33439467 266 21 C267.04607422 21.79664063 267.04607422 21.79664063 268.11328125 22.609375 C284.18801972 35.62379252 295.2066157 56.72939312 298 77 C299.70163358 102.1014456 296.38106194 121.58236931 283 143 C282.46020508 143.90814453 281.92041016 144.81628906 281.36425781 145.75195312 C278.54780135 148.42997162 276.72375818 148.56842991 272.90557861 148.56648254 C271.72255157 148.5277729 271.72255157 148.5277729 270.515625 148.48828125 C269.29223419 148.47766914 269.29223419 148.47766914 268.04412842 148.46684265 C265.44514319 148.43890544 262.84833128 148.37617281 260.25 148.3125 C258.48570825 148.28741605 256.72138265 148.26460304 254.95703125 148.24414062 C250.63718644 148.18908154 246.31896137 148.10281735 242 148 C242 147.01 242 146.02 242 145 C243.6875 143.45703125 243.6875 143.45703125 246 141.8125 C256.29062465 134.11071174 262.41478783 126.23237033 267.25 114.375 C267.63792725 113.42451782 267.63792725 113.42451782 268.03369141 112.45483398 C273.59318439 98.25939744 272.737516 79.99740746 267 66 C263.99861462 59.32256625 260.39209707 53.83895821 255.3203125 48.55859375 C254 47 254 47 254 45 C253.41605469 44.72800781 252.83210937 44.45601562 252.23046875 44.17578125 C250.03327378 43.01754012 248.25378476 41.72994638 246.3125 40.1875 C231.62400933 29.130779 216.59452681 27.39866602 198.76391602 27.45410156 C196.87994542 27.44534664 194.99598224 27.43485425 193.11203003 27.42277527 C188.04483786 27.39512959 182.97789087 27.39150581 177.91063428 27.39249516 C172.59750832 27.38934747 167.28448983 27.36369096 161.97142029 27.34051514 C151.93149445 27.30009294 141.89163335 27.27964694 131.85163873 27.26654124 C120.41251482 27.25062433 108.97350033 27.2121891 97.53444016 27.17194796 C74.02297522 27.08973767 50.51157995 27.0384995 27 27 C27 41.85 27 56.7 27 72 C18.09 72 9.18 72 0 72 C0 48.24 0 24.48 0 0 Z " fill="#272324" transform="translate(612,74)"/>
<path d="M0 0 C0.69353805 -0.00085442 1.3870761 -0.00170885 2.10163045 -0.00258917 C4.42473388 -0.00423583 6.74776504 0.00126408 9.07086182 0.00672913 C10.73645526 0.0070112 12.40204884 0.00685287 14.06764221 0.00628662 C18.58999926 0.00599943 23.11232985 0.01188352 27.63468075 0.01886058 C32.36057845 0.02510714 37.08647674 0.02569895 41.81237793 0.02688599 C50.76186551 0.02999545 59.7113409 0.03820367 68.66082311 0.04823548 C78.84935397 0.05940854 89.03788541 0.06491008 99.22642088 0.06993091 C120.18531704 0.08038659 141.14420151 0.09817978 162.10308838 0.12025452 C162.10308838 6.39025452 162.10308838 12.66025452 162.10308838 19.12025452 C158.92841446 19.12572296 158.92841446 19.12572296 155.68960571 19.13130188 C135.76571941 19.16751442 115.84198401 19.22569377 95.91821861 19.30415726 C85.67466341 19.34396901 75.43118527 19.37635066 65.18756104 19.39125061 C56.25935966 19.40425604 47.3313277 19.43119236 38.40322173 19.47486758 C33.67568965 19.49750733 28.94836671 19.51316369 24.2207756 19.51213837 C19.77031619 19.51139324 15.32031955 19.52928465 10.86997986 19.56142235 C9.23738846 19.56993573 7.60474524 19.5716615 5.97214127 19.56605721 C3.74037829 19.55941706 1.51008765 19.57733554 -0.7215271 19.60127258 C-2.59368865 19.60680334 -2.59368865 19.60680334 -4.50367165 19.61244583 C-8.56069074 20.21959108 -10.71757069 21.57147098 -13.89691162 24.12025452 C-16.99509641 28.66425887 -17.67797942 32.77047509 -16.89691162 38.12025452 C-15.17962574 42.82019481 -13.03084496 45.32984951 -8.89691162 48.12025452 C-5.74219994 49.17182508 -3.55095611 49.23988538 -0.23948669 49.23136902 C0.93921494 49.23104172 2.11791656 49.23071442 3.33233643 49.2303772 C5.27487305 49.22251442 5.27487305 49.22251442 7.25665283 49.2144928 C8.63337646 49.21261353 10.01010091 49.21126867 11.38682556 49.2104187 C14.35461988 49.2081338 17.32239728 49.20340876 20.29018593 49.19722366 C24.99479112 49.18880963 29.69931482 49.19426115 34.40391541 49.20323181 C35.59628743 49.20543832 35.59628743 49.20543832 36.81274778 49.2076894 C38.43864259 49.21076038 40.06453732 49.21388042 41.69043195 49.21704841 C52.64130819 49.23819631 63.59192025 49.25205929 74.54278564 49.21986389 C81.93041677 49.19824522 89.31757987 49.20161825 96.70518082 49.23327243 C100.60934693 49.24903943 104.51261876 49.25255112 108.41674232 49.22551346 C112.10016497 49.20023104 115.78210061 49.20831711 119.46545601 49.24039268 C121.43801261 49.249253 123.41063366 49.22390545 125.38302612 49.19696045 C135.78983899 49.3396928 145.1491024 52.25296364 152.73560047 59.70669746 C158.61808819 66.61560416 161.6717049 73.3693249 161.54058838 82.43275452 C161.53156494 83.18041077 161.5225415 83.92806702 161.51324463 84.69837952 C161.21314962 94.31809183 158.08635452 101.06910825 151.45465088 108.07337952 C143.76066272 114.7704722 136.11835391 117.24795702 126.08592224 117.24050903 C125.39152977 117.24136346 124.6971373 117.24221788 123.98170263 117.2430982 C121.66170511 117.24474149 119.34178037 117.23925051 117.02178955 117.23377991 C115.3560486 117.23349776 113.69030753 117.23365631 112.02456665 117.23422241 C107.50640088 117.23450932 102.98826167 117.22862982 98.47010207 117.22164845 C93.74687952 117.21539716 89.02365635 117.21480971 84.3004303 117.21362305 C75.3580592 117.21051498 66.41570033 117.20230863 57.47333461 117.19227356 C47.29203556 117.18109617 37.11073593 117.17559787 26.92943227 117.17057812 C5.98731063 117.1601256 -14.95479929 117.14233484 -35.89691162 117.12025452 C-35.89691162 111.18025452 -35.89691162 105.24025452 -35.89691162 99.12025452 C-33.81804657 99.11438828 -31.73918152 99.10852203 -29.59732056 99.10247803 C-10.02663667 99.04583694 9.54393651 98.97277052 29.11450386 98.8845396 C39.17644326 98.83957258 49.23834719 98.80015998 59.300354 98.77381897 C68.070321 98.75084626 76.84017584 98.71745634 85.6100539 98.67155296 C90.25371585 98.64761096 94.89726665 98.62888857 99.54098892 98.62264061 C103.91258958 98.61659419 108.28390583 98.59661035 112.65540123 98.565979 C114.25896798 98.55719168 115.86257188 98.55347764 117.46616173 98.55524635 C119.65830105 98.55690068 121.84957498 98.54018759 124.04159546 98.51898193 C125.26758013 98.51437297 126.4935648 98.509764 127.75670052 98.50501537 C132.79145602 97.92612945 136.0301675 96.30916684 139.41558838 92.55775452 C142.53299691 88.05483109 142.61062022 84.50371725 142.10308838 79.12025452 C140.54701184 74.91884787 138.9725937 72.4177733 135.10308838 70.12025452 C131.96879318 69.07548945 129.77732252 68.99048318 126.48794556 68.98222351 C125.31884644 68.97677017 124.14974731 68.97131683 122.94522095 68.96569824 C121.0189537 68.96413475 121.0189537 68.96413475 119.05377197 68.96253967 C117.68863766 68.95787066 116.3235049 68.95272695 114.95837402 68.94714355 C112.01676962 68.93586405 109.07517535 68.92742898 106.13355637 68.92102432 C101.47652171 68.91033542 96.81955948 68.89008646 92.16256714 68.86790466 C78.91897922 68.80601595 65.675395 68.75202991 52.43170166 68.71888733 C45.11856035 68.70050576 37.80553993 68.67152312 30.49248755 68.63088262 C26.62509183 68.60986691 22.75784812 68.59436315 18.8903923 68.59207535 C15.24758383 68.589918 11.60509148 68.57393881 7.96237946 68.54768562 C5.99965694 68.53713931 4.03687256 68.54122946 2.0741272 68.54586792 C-10.09599164 68.43203916 -17.99723461 65.66790719 -26.81097412 57.30384827 C-33.34826639 50.41882769 -36.08039979 43.54289932 -36.39691162 34.05775452 C-36.20984015 27.90443937 -35.04058771 23.38154575 -31.89691162 18.12025452 C-31.31941162 17.08900452 -30.74191162 16.05775452 -30.14691162 14.99525452 C-22.34263633 5.02312498 -12.60935328 -0.00935412 0 0 Z " fill="#282425" transform="translate(134.89691162109375,487.87974548339844)"/>
<path d="M0 0 C5.94 0 11.88 0 18 0 C18.0093457 2.66465332 18.01869141 5.32930664 18.02832031 8.07470703 C18.06210432 16.88381311 18.11766127 25.69268526 18.18390274 34.50160408 C18.2233931 39.84190211 18.25557403 45.18203486 18.27099609 50.52246094 C18.28615226 55.67737215 18.32057969 60.83182901 18.36830902 65.98653793 C18.38313348 67.95204593 18.39104162 69.9176188 18.39188385 71.88318253 C18.39425203 74.63892164 18.42131959 77.39340364 18.45410156 80.14892578 C18.4490712 80.95956985 18.44404083 81.77021393 18.43885803 82.60542297 C18.5349547 87.83481364 19.46063888 90.90772334 23 95 C26.75416632 97.71245223 29.34868546 98.37687072 33.95176697 98.38768005 C35.74128532 98.402537 35.74128532 98.402537 37.56695557 98.41769409 C38.86735779 98.41319244 40.16776001 98.4086908 41.50756836 98.40405273 C42.89757333 98.40975801 44.28757361 98.41672288 45.67756653 98.42485046 C49.44621583 98.44278007 53.21463228 98.4416139 56.98331141 98.43590808 C60.13192466 98.43281585 63.28049321 98.43890906 66.4291001 98.44494683 C73.85828886 98.45898985 81.28736263 98.45743271 88.71655273 98.44604492 C96.37551579 98.4345642 104.03412865 98.4486389 111.69304556 98.4754414 C118.27410245 98.49760783 124.8550495 98.50423366 131.43614107 98.49836498 C135.36438766 98.49499639 139.2924098 98.49740375 143.22062492 98.51461601 C146.91520142 98.53009826 150.60925973 98.52611601 154.30381584 98.50731087 C156.30172407 98.50187578 158.29965563 98.51612941 160.29751587 98.53100586 C168.99493877 98.5479757 168.99493877 98.5479757 176 94 C178.89224071 90.36032191 178.30724216 85.72819017 178.31884766 81.28417969 C178.32889328 80.40577423 178.3389389 79.52736877 178.34928894 78.62234497 C178.3801517 75.7221949 178.39716473 72.82213728 178.4140625 69.921875 C178.43277165 67.90976159 178.45234488 65.89765603 178.4727478 63.88555908 C178.52410165 58.59200678 178.56371004 53.29842904 178.60089111 48.00476074 C178.64091031 42.60206796 178.69201217 37.19948132 178.7421875 31.796875 C178.83898541 21.19798377 178.9223536 10.59904885 179 0 C185.27 0 191.54 0 198 0 C198.06793234 11.4314447 198.12290633 22.86275405 198.15543652 34.29435539 C198.17105389 39.60321462 198.19222014 44.91192788 198.22631836 50.22070312 C198.25905222 55.34949289 198.27688253 60.47814275 198.28463173 65.60702896 C198.29015013 67.55812912 198.30092593 69.50922213 198.31719017 71.4602623 C198.52237702 97.10767001 198.52237702 97.10767001 189.09375 107 C179.61468739 116.07853884 170.55490879 117.59690962 157.69702148 117.50170898 C156.28159042 117.50549978 154.86616308 117.51100605 153.45074463 117.51808167 C149.6345783 117.53195342 145.81886702 117.52092603 142.00272632 117.50437045 C137.99376308 117.49043842 133.9848241 117.49698916 129.97584534 117.50050354 C123.24692521 117.50319895 116.51818415 117.48978687 109.78930664 117.46655273 C102.02752666 117.43993635 94.26604568 117.43820183 86.50423568 117.4499411 C79.01308549 117.46074702 71.52204266 117.45451048 64.03090096 117.44038582 C60.85368349 117.43465146 57.67654525 117.43468847 54.49932671 117.43945122 C50.75383733 117.44424895 47.00867239 117.43400472 43.26324463 117.41249657 C41.24570766 117.40434417 39.22812803 117.41074935 37.21058655 117.41769409 C26.14326603 117.32769393 17.60995542 115.16685555 9 108 C1.73473865 100.49731181 -0.47530956 91.84996321 -0.34057617 81.62475586 C-0.34123329 80.29142212 -0.34123329 80.29142212 -0.34190369 78.93115234 C-0.33983217 76.02548396 -0.31657918 73.12040994 -0.29296875 70.21484375 C-0.28736696 68.1874676 -0.28309962 66.16008737 -0.28010559 64.13270569 C-0.26870271 58.82097985 -0.23927503 53.50950378 -0.20599365 48.19787598 C-0.17519417 42.76801938 -0.16157921 37.33812207 -0.14648438 31.90820312 C-0.11440069 21.27200856 -0.06167026 10.63606421 0 0 Z " fill="#272324" transform="translate(308,488)"/>
<path d="M0 0 C19.58433531 -0.09030481 39.16850198 -0.16398458 58.75299263 -0.20724869 C67.84647197 -0.22787117 76.93981273 -0.25598574 86.03320312 -0.30175781 C93.95930063 -0.34163523 101.88529777 -0.3674351 109.8114928 -0.37635398 C114.00813336 -0.38156722 118.2044868 -0.39381351 122.40103531 -0.42292023 C126.35237562 -0.45010374 130.303311 -0.45843915 134.25473595 -0.45243073 C135.70353967 -0.45352966 137.15235717 -0.46146639 138.60107994 -0.4768219 C140.58259615 -0.49679153 142.56433044 -0.48953876 144.54592896 -0.48101807 C146.20792171 -0.48654882 146.20792171 -0.48654882 147.90349007 -0.49219131 C152.91800694 0.30486786 156.0162201 2.88327687 159.3125 6.625 C162.17225034 10.64983381 162.40155673 13.02069658 162 18 C160.10456654 23.81627295 157.49142798 27.07902767 152 30 C148.7497937 31.0834021 146.40240754 31.1231307 142.98262024 31.12025452 C141.72478729 31.12162918 140.46695435 31.12300385 139.17100525 31.12442017 C137.77456641 31.12088102 136.37812782 31.11724621 134.98168945 31.11352539 C133.51328534 31.11324336 132.04488108 31.11340156 130.57647705 31.1139679 C126.5871002 31.11425525 122.5977533 31.10836843 118.60838342 31.10139394 C114.44035509 31.09515019 110.27232611 31.09455579 106.10429382 31.09336853 C98.21016798 31.09025824 90.31605596 31.0820489 82.42193621 31.07201904 C73.43534061 31.06084856 64.44874436 31.05534509 55.46214354 31.05032361 C36.97475293 31.03986605 18.48738127 31.02152429 0 31 C0 20.77 0 10.54 0 0 Z " fill="#FCFCFC" transform="translate(954,507)"/>
<path d="M0 0 C19.45394958 -0.06772934 38.90780365 -0.12298898 58.3618412 -0.15543652 C67.39475349 -0.17090313 76.4275873 -0.19198874 85.46044922 -0.22631836 C93.3338086 -0.25622699 101.20711114 -0.2755765 109.08052576 -0.28226548 C113.24916582 -0.28617526 117.41764329 -0.2953595 121.58623123 -0.31719017 C125.51126042 -0.33757846 129.43606028 -0.34382909 133.36113739 -0.33932304 C134.80025606 -0.3401472 136.23938253 -0.34609902 137.67845535 -0.35761642 C139.6468778 -0.37259537 141.61542376 -0.36715377 143.58389282 -0.36076355 C145.23482406 -0.36491162 145.23482406 -0.36491162 146.91910744 -0.36914349 C151.88680147 0.226071 155.14398965 2.25564317 158.875 5.5 C161.7291662 9.17358811 161.58114658 12.94395472 161.35546875 17.4453125 C160.7137544 22.05719367 158.95232212 24.14535195 155.5625 27.1875 C151.12026149 30.32957114 148.36640231 31.24977509 142.86236572 31.24050903 C140.97355431 31.24463303 140.97355431 31.24463303 139.04658508 31.24884033 C137.65377712 31.24176251 136.26097012 31.23449289 134.86816406 31.22705078 C133.39961251 31.22648656 131.93106038 31.22680345 130.46250916 31.22793579 C126.47728652 31.22850987 122.49218415 31.21674667 118.50698948 31.20278788 C114.34164094 31.19028969 110.17628969 31.18911074 106.01092529 31.18673706 C98.12389598 31.18051961 90.23692208 31.16410521 82.34991717 31.14403808 C73.37055927 31.12168733 64.39119873 31.11068772 55.41181993 31.10064721 C36.94117549 31.07973921 18.47060701 31.04305966 0 31 C0 20.77 0 10.54 0 0 Z " fill="#FCFCFC" transform="translate(535,507)"/>
<path d="M0 0 C19.45394958 -0.06772934 38.90780365 -0.12298898 58.3618412 -0.15543652 C67.39475349 -0.17090313 76.4275873 -0.19198874 85.46044922 -0.22631836 C93.3338086 -0.25622699 101.20711114 -0.2755765 109.08052576 -0.28226548 C113.24916582 -0.28617526 117.41764329 -0.2953595 121.58623123 -0.31719017 C125.51126042 -0.33757846 129.43606028 -0.34382909 133.36113739 -0.33932304 C134.80025606 -0.3401472 136.23938253 -0.34609902 137.67845535 -0.35761642 C139.6468778 -0.37259537 141.61542376 -0.36715377 143.58389282 -0.36076355 C145.23482406 -0.36491162 145.23482406 -0.36491162 146.91910744 -0.36914349 C151.80655295 0.21645586 155.03078557 1.92600563 158.3125 5.5625 C161.43284939 10.06967134 161.49965704 13.61278863 161 19 C159.04756452 24.4462674 156.06755398 27.11041117 151.22344589 30.09434319 C148.329508 31.27310566 145.98699115 31.24576935 142.86236572 31.24050903 C140.97355431 31.24463303 140.97355431 31.24463303 139.04658508 31.24884033 C137.65377712 31.24176251 136.26097012 31.23449289 134.86816406 31.22705078 C133.39961251 31.22648656 131.93106038 31.22680345 130.46250916 31.22793579 C126.47728652 31.22850987 122.49218415 31.21674667 118.50698948 31.20278788 C114.34164094 31.19028969 110.17628969 31.18911074 106.01092529 31.18673706 C98.12389598 31.18051961 90.23692208 31.16410521 82.34991717 31.14403808 C73.37055927 31.12168733 64.39119873 31.11068772 55.41181993 31.10064721 C36.94117549 31.07973921 18.47060701 31.04305966 0 31 C0 20.77 0 10.54 0 0 Z " fill="#FCFCFC" transform="translate(1163,556)"/>
<path d="M0 0 C18.15011883 -0.09031638 36.30004572 -0.16399125 54.45032692 -0.20724869 C62.87793654 -0.22786829 71.30539656 -0.25597728 79.73291016 -0.30175781 C87.0788929 -0.34164413 94.42476729 -0.3674372 101.77085531 -0.37635398 C105.66010348 -0.38156573 109.54904169 -0.39380236 113.43819046 -0.42292023 C117.1006261 -0.45011794 120.76262479 -0.45843636 124.42515182 -0.45243073 C126.4064568 -0.45405179 128.38771443 -0.47555182 130.36889648 -0.49768066 C138.75991386 -0.45878488 142.24498838 0.44796198 148.3125 6.1875 C150.65652361 10.09420602 151.3102705 13.45945612 151 18 C149.67392315 22.67833323 147.74099455 25.41022883 143.9375 28.4375 C139.83986633 30.61709238 136.97857419 31.12441287 132.40022278 31.12025452 C131.23494553 31.12162918 130.06966827 31.12300385 128.86907959 31.12442017 C127.5894635 31.12082489 126.30984741 31.11722961 124.99145508 31.11352539 C123.63142397 31.11324334 122.27139271 31.1134016 120.91136169 31.1139679 C117.21742897 31.11425518 113.52352862 31.1083696 109.82960343 31.10139394 C105.96987461 31.09514891 102.11014508 31.09455569 98.25041199 31.09336853 C90.94064908 31.09025861 83.63090109 31.08204978 76.32114476 31.07201904 C67.99959108 31.06084739 59.67803669 31.0553448 51.35647738 31.05032361 C34.23764147 31.0398669 17.11882612 31.02152562 0 31 C0 20.77 0 10.54 0 0 Z " fill="#FBFBFB" transform="translate(1163,507)"/>
<path d="M0 0 C0.64324219 0.33902344 1.28648437 0.67804687 1.94921875 1.02734375 C8.30269135 4.90006783 11.76366598 11.43024375 14.14453125 18.3046875 C16.85058789 29.99386365 15.7376985 41.85620465 9.6796875 52.26953125 C4.7394674 59.54488271 -1.54327096 62.9831232 -10 65 C-21.13860299 65.97647284 -30.71188613 65.29352645 -39.8125 58.3125 C-46.29683327 52.25637742 -49.61447655 43.91166883 -50.30078125 35.16796875 C-50.3367835 22.93920309 -49.05993404 13.90159155 -40.75 4.4375 C-29.36468676 -5.65402764 -13.46163065 -7.56748439 0 0 Z " fill="#272324" transform="translate(285,706)"/>
<path d="M0 0 C5.40375 -0.0825 10.8075 -0.165 16.375 -0.25 C18.05899902 -0.28641602 19.74299805 -0.32283203 21.47802734 -0.36035156 C30.95166901 -0.48141606 38.73010398 0.05155827 46.5859375 5.9375 C54.863773 15.48050687 56.88598716 25.60268356 56.390625 37.9296875 C55.71067862 47.18642583 51.86908345 55.21885027 45.25 61.6875 C39.06480455 66.08850445 33.28779805 67.45917021 25.78125 67.29296875 C24.7907666 67.28843689 24.7907666 67.28843689 23.78027344 67.28381348 C21.35335275 67.26831715 18.92665782 67.22643587 16.5 67.1875 C11.055 67.125625 5.61 67.06375 0 67 C0 44.89 0 22.78 0 0 Z " fill="#252122" transform="translate(546,703)"/>
<path d="M0 0 C9.1265625 -0.0928125 9.1265625 -0.0928125 18.4375 -0.1875 C20.33943115 -0.21481201 22.2413623 -0.24212402 24.20092773 -0.27026367 C25.73680998 -0.27903924 27.2726993 -0.28668063 28.80859375 -0.29296875 C29.58303833 -0.30831665 30.35748291 -0.32366455 31.15539551 -0.33947754 C37.54387695 -0.34248388 44.07673057 0.6221957 49.15625 4.75390625 C49.5996875 5.35074219 50.043125 5.94757812 50.5 6.5625 C50.9640625 7.16191406 51.428125 7.76132812 51.90625 8.37890625 C55.2502501 13.33519212 54.47529028 19.23452228 54 25 C52.48664357 30.52326902 48.65916966 33.29737191 43.90234375 36.0546875 C42 37 42 37 39 38 C39.88558594 38.67546875 40.77117188 39.3509375 41.68359375 40.046875 C45.23098162 43.00806405 47.59273518 46.37698197 50.0625 50.25 C50.49224121 50.9087915 50.92198242 51.56758301 51.36474609 52.24633789 C54.46498792 57.04248371 57.38448778 61.92039995 60 67 C54.68430295 67.63865778 49.26249032 68.27828325 44 67 C40.18903737 63.99599546 38.29673064 60.21899433 36 56 C34.49239584 53.62797429 32.90503832 51.31549496 31.3125 49 C30.60738281 47.9275 29.90226563 46.855 29.17578125 45.75 C26.85216691 42.81315171 25.43395136 41.46002967 22 40 C19.03 39.67 16.06 39.34 13 39 C13 48.24 13 57.48 13 67 C8.71 67 4.42 67 0 67 C0 44.89 0 22.78 0 0 Z " fill="#252122" transform="translate(797,703)"/>
<path d="M0 0 C9.1265625 -0.0928125 9.1265625 -0.0928125 18.4375 -0.1875 C20.33943115 -0.21481201 22.2413623 -0.24212402 24.20092773 -0.27026367 C25.73680998 -0.27903924 27.2726993 -0.28668063 28.80859375 -0.29296875 C29.58303833 -0.30831665 30.35748291 -0.32366455 31.15539551 -0.33947754 C37.54387695 -0.34248388 44.07673057 0.6221957 49.15625 4.75390625 C49.5996875 5.35074219 50.043125 5.94757812 50.5 6.5625 C50.9640625 7.16191406 51.428125 7.76132812 51.90625 8.37890625 C55.2502501 13.33519212 54.47529028 19.23452228 54 25 C52.48664357 30.52326902 48.65916966 33.29737191 43.90234375 36.0546875 C42 37 42 37 39 38 C39.88558594 38.67546875 40.77117187 39.3509375 41.68359375 40.046875 C45.23098162 43.00806405 47.59273518 46.37698197 50.0625 50.25 C50.49224121 50.9087915 50.92198242 51.56758301 51.36474609 52.24633789 C54.46498792 57.04248371 57.38448778 61.92039995 60 67 C54.68430295 67.63865778 49.26249032 68.27828325 44 67 C40.18903737 63.99599546 38.29673064 60.21899433 36 56 C34.49239584 53.62797429 32.90503832 51.31549496 31.3125 49 C30.60738281 47.9275 29.90226562 46.855 29.17578125 45.75 C26.85216691 42.81315171 25.43395136 41.46002967 22 40 C19.03 39.67 16.06 39.34 13 39 C13 48.24 13 57.48 13 67 C8.71 67 4.42 67 0 67 C0 44.89 0 22.78 0 0 Z " fill="#252122" transform="translate(330,703)"/>
<path d="M0 0 C13 0 13 0 16.40234375 3.34765625 C17.29604191 4.89212672 18.13879845 6.46683047 18.9375 8.0625 C19.90944804 9.78946128 20.88213952 11.5160043 21.85546875 13.2421875 C22.60449463 14.63002441 22.60449463 14.63002441 23.36865234 16.04589844 C25.66752288 20.20877385 28.16009563 24.24359248 30.6574707 28.28955078 C33.46268045 32.84478462 36.22723807 37.42494281 39 42 C39.33 28.14 39.66 14.28 40 0 C44.29 0 48.58 0 53 0 C53 22.11 53 44.22 53 67 C48.38 67 43.76 67 39 67 C35.33320309 62.83837583 33.21979616 59.80179254 30.75 55 C29.49609783 52.74927183 28.24087023 50.49928159 26.984375 48.25 C25.66953125 45.8575 24.3546875 43.465 23 41 C18.05 33.08 18.05 33.08 13 25 C12.67 38.86 12.34 52.72 12 67 C8.04 67 4.08 67 0 67 C0 44.89 0 22.78 0 0 Z " fill="#262223" transform="translate(1133,703)"/>
<path d="M0 0 C3.85947858 3.31567729 6.62362497 7.04504988 8 12 C8 12.99 8 13.98 8 15 C6.4176994 15.33820166 4.83410625 15.67035939 3.25 16 C2.36828125 16.185625 1.4865625 16.37125 0.578125 16.5625 C-2 17 -2 17 -6 17 C-6.391875 16.071875 -6.78375 15.14375 -7.1875 14.1875 C-9.20917399 10.6321423 -10.37480214 9.74318025 -14 8 C-20.74853717 7.06219238 -27.17289161 7.35805726 -33 11 C-39.20648176 18.67643796 -38.70906343 27.47978572 -38.23535156 36.93212891 C-37.62033791 42.33582774 -34.72040843 45.43139231 -30.875 48.9375 C-25.02811182 52.25073663 -17.00720915 52.03475631 -10.625 50.38671875 C-8.44582604 49.46771793 -8.44582604 49.46771793 -6 47 C-5.12605519 44.19050871 -5.04985836 41.99150149 -5 39 C-9.95 39 -14.9 39 -20 39 C-20 35.04 -20 31.08 -20 27 C-10.43 27 -0.86 27 9 27 C9.1546875 33.55875 9.1546875 33.55875 9.3125 40.25 C9.35802002 41.62317383 9.40354004 42.99634766 9.45043945 44.41113281 C9.46917114 46.04066895 9.46917114 46.04066895 9.48828125 47.703125 C9.51446533 48.81333008 9.54064941 49.92353516 9.56762695 51.06738281 C9 54 9 54 6.64160156 56.30297852 C3.96803248 58.02053662 1.34441603 59.40586943 -1.5625 60.6875 C-2.49191406 61.10386719 -3.42132812 61.52023437 -4.37890625 61.94921875 C-13.41555131 65.57195723 -25.68315854 65.3569708 -34.828125 62.02734375 C-43.75913165 57.80278485 -48.34819579 51.27533119 -52.140625 42.30078125 C-53.28951604 37.88799521 -53.36821577 33.72954441 -53.375 29.1875 C-53.41173828 27.91036133 -53.41173828 27.91036133 -53.44921875 26.60742188 C-53.48939027 17.81655432 -50.22691003 10.72565055 -44.84375 3.859375 C-33.32622993 -7.75575117 -13.52846208 -8.55444749 0 0 Z " fill="#282425" transform="translate(1271,707)"/>
<path d="M0 0 C1.39456452 0.00667256 2.78911118 0.01863093 4.18359375 0.03515625 C5.2499707 0.04192383 5.2499707 0.04192383 6.33789062 0.04882812 C8.09899388 0.06064761 9.86005411 0.07858362 11.62109375 0.09765625 C15.01511846 8.53644159 18.40544885 16.97669867 21.79103088 25.41887474 C23.36309347 29.33858007 24.93643899 33.25776029 26.51269531 37.17578125 C28.03292548 40.95467591 29.54981311 44.73489607 31.06436157 48.51607132 C31.64369072 49.96068987 32.22423653 51.40482111 32.80599976 52.84846115 C33.61865418 54.8656459 34.42702236 56.88449719 35.234375 58.90380859 C35.69626221 60.05408539 36.15814941 61.20436218 36.6340332 62.38949585 C37.62109375 65.09765625 37.62109375 65.09765625 37.62109375 67.09765625 C32.67109375 67.09765625 27.72109375 67.09765625 22.62109375 67.09765625 C20.97109375 62.47765625 19.32109375 57.85765625 17.62109375 53.09765625 C3.76109375 52.60265625 3.76109375 52.60265625 -10.37890625 52.09765625 C-11.03890625 55.06765625 -11.69890625 58.03765625 -12.37890625 61.09765625 C-13.36890625 63.07765625 -14.35890625 65.05765625 -15.37890625 67.09765625 C-19.99890625 67.09765625 -24.61890625 67.09765625 -29.37890625 67.09765625 C-26.94626217 59.5557568 -24.16441668 52.17603968 -21.30859375 44.78515625 C-20.82192968 43.52250024 -20.33536941 42.25980421 -19.84890747 40.99707031 C-18.83667818 38.37105044 -17.82292271 35.74562626 -16.80810547 33.12060547 C-15.50576838 29.75136449 -14.20777301 26.38046933 -12.91093254 23.0091095 C-11.9108426 20.41082648 -10.90827927 17.81350337 -9.90497208 15.21646118 C-9.19161967 13.36844823 -8.48054704 11.51955578 -7.76950073 9.6706543 C-7.12345383 8.00256714 -7.12345383 8.00256714 -6.46435547 6.30078125 C-6.08479706 5.31754883 -5.70523865 4.33431641 -5.31417847 3.32128906 C-3.96543066 0.11460782 -3.96543066 0.11460782 0 0 Z " fill="#282425" transform="translate(481.37890625,702.90234375)"/>
<path d="M0 0 C5.04952958 3.33459501 8.15113707 7.25764924 10 13 C10 14.65 10 16.3 10 18 C5.38 18 0.76 18 -4 18 C-4.65104167 16.2421875 -5.30208333 14.484375 -5.953125 12.7265625 C-7.33763257 10.44315823 -8.50194962 9.90071799 -11 9 C-15.61723814 8.42190677 -19.76397368 8.53031 -24.125 10.1875 C-26.18549796 11.87505118 -26.18549796 11.87505118 -26.6875 14.4375 C-26.20506951 17.2570653 -26.20506951 17.2570653 -23.41015625 19.0390625 C-19.81780242 21.10476883 -16.77914549 22.02293455 -12.75 22.9375 C-3.48968834 25.21671612 4.54690079 27.82035119 10 36 C12.29383953 40.15075725 12.77500929 44.34994425 12 49 C9.96556223 54.95799633 7.30878434 59.53204596 2.0390625 63.0625 C-6.71895011 67.08917247 -17.48878705 67.40542575 -26.859375 65.3828125 C-33.52622528 62.7850398 -38.05397376 57.55361314 -41.4375 51.375 C-42 49 -42 49 -42 43 C-35.565 42.505 -35.565 42.505 -29 42 C-28.62875 43.2375 -28.2575 44.475 -27.875 45.75 C-26.67142647 48.89266422 -25.90035706 50.09489804 -23.375 52.5 C-17.80877011 54.97387995 -13.22533205 54.84967224 -7.5625 52.6875 C-4.78178314 51.09498436 -4.78178314 51.09498436 -3 48 C-3.31730524 44.36060068 -3.31730524 44.36060068 -4 41 C-9.54851621 38.88576848 -15.05960368 36.92313806 -20.8125 35.4375 C-28.82513048 33.3061175 -34.08993227 30.31492801 -38.8125 23.3125 C-40.43889931 18.77570194 -40.69204573 14.76656217 -40 10 C-37.27654183 4.44833527 -33.02806341 0.23973495 -27.26171875 -2.12109375 C-18.59008171 -4.45776241 -8.0752775 -4.20728744 0 0 Z " fill="#282425" transform="translate(1045,705)"/>
<path d="M0 0 C16.17 0 32.34 0 49 0 C49 3.63 49 7.26 49 11 C37.12 11 25.24 11 13 11 C13 16.28 13 21.56 13 27 C23.89 27 34.78 27 46 27 C46 30.3 46 33.6 46 37 C35.11 37 24.22 37 13 37 C13 43.27 13 49.54 13 56 C25.54 56 38.08 56 51 56 C51 59.63 51 63.26 51 67 C34.17 67 17.34 67 0 67 C0 44.89 0 22.78 0 0 Z " fill="#231F20" transform="translate(715,703)"/>
<path d="M0 0 C4.95 0 9.9 0 15 0 C15.40839111 1.17506104 15.81678223 2.35012207 16.23754883 3.56079102 C17.76138957 7.94318358 19.28853386 12.32441901 20.81665039 16.70532227 C21.47607343 18.59726337 22.13461445 20.48951215 22.79223633 22.38208008 C23.74065043 25.11101422 24.69228894 27.83880594 25.64453125 30.56640625 C25.9352803 31.40522842 26.22602936 32.2440506 26.52558899 33.10829163 C28.17750311 37.82874635 29.97291297 42.42764342 32 47 C32.18570053 46.42592911 32.37140106 45.85185822 32.56272888 45.26039124 C34.48942277 39.30627706 36.42034035 33.35354491 38.35375977 27.40161133 C39.07555702 25.17768229 39.79626243 22.95339858 40.51586914 20.72875977 C41.54809946 17.53829426 42.58420028 14.34910881 43.62109375 11.16015625 C43.94403915 10.15912369 44.26698456 9.15809113 44.59971619 8.12672424 C44.89995193 7.20584518 45.20018768 6.28496613 45.50952148 5.33618164 C45.77377426 4.52121719 46.03802704 3.70625275 46.31028748 2.86659241 C47 1 47 1 48 0 C50.35313555 -0.07271741 52.70833668 -0.08370868 55.0625 -0.0625 C56.35285156 -0.05347656 57.64320313 -0.04445313 58.97265625 -0.03515625 C59.97167969 -0.02355469 60.97070312 -0.01195312 62 0 C60.04573055 6.6982255 57.91454612 13.30821171 55.6015625 19.890625 C55.28472504 20.79770203 54.96788757 21.70477905 54.64144897 22.63934326 C53.63801658 25.51028427 52.63151062 28.38013694 51.625 31.25 C50.95814235 33.15748533 50.29147429 35.06503694 49.625 36.97265625 C46.12052867 46.99527524 42.58512404 57.00594766 39 67 C34.05 67 29.1 67 24 67 C18.96055801 54.30490354 14.24782796 41.51149063 9.69091797 28.63574219 C8.60865091 25.57882111 7.52138813 22.52370804 6.43359375 19.46875 C5.73929321 17.51312381 5.04527199 15.55739843 4.3515625 13.6015625 C4.0287027 12.69435455 3.7058429 11.78714661 3.37319946 10.85244751 C3.0755368 10.00991425 2.77787415 9.16738098 2.47119141 8.29931641 C2.21028717 7.56307037 1.94938293 6.82682434 1.68057251 6.06826782 C1.02452697 4.07453775 0.50905653 2.03622612 0 0 Z " fill="#272324" transform="translate(626,703)"/>
<path d="M0 0 C15.18 0 30.36 0 46 0 C46 3.63 46 7.26 46 11 C35.11 11 24.22 11 13 11 C13 16.61 13 22.22 13 28 C22.24 28 31.48 28 41 28 C41 31.3 41 34.6 41 38 C31.76 38 22.52 38 13 38 C13 47.57 13 57.14 13 67 C8.71 67 4.42 67 0 67 C0 44.89 0 22.78 0 0 Z " fill="#231F20" transform="translate(162,703)"/>
<path d="M0 0 C5.49507845 4.02078911 8.39132161 8.16734195 9.5625 14.875 C10.10565666 22.3725018 10.43235855 30.17353764 6.5625 36.875 C2.8969686 40.97380935 -0.5297968 43.61905499 -6.14453125 44.11328125 C-10.87410488 44.22631509 -14.49561311 44.28600519 -18.875 42.375 C-25.15134567 36.25173593 -27.56303581 30.36887746 -27.6875 21.6875 C-27.60671632 15.1366776 -27.34248377 9.05568825 -22.75 4.02734375 C-15.996798 -1.92391552 -8.67798431 -2.84006759 0 0 Z " fill="#FCFCFC" transform="translate(276.4375,715.125)"/>
<path d="M0 0 C17.49 0 34.98 0 53 0 C53 3.63 53 7.26 53 11 C46.4 11 39.8 11 33 11 C33 29.48 33 47.96 33 67 C28.71 67 24.42 67 20 67 C20 48.52 20 30.04 20 11 C13.4 11 6.8 11 0 11 C0 7.37 0 3.74 0 0 Z " fill="#231F20" transform="translate(879,703)"/>
<path d="M0 0 C19.33538462 0 19.33538462 0 24 4 C30.26978679 11.5558969 29.65335092 20.59742809 29 30 C28.10932148 34.77108686 26.90652585 38.94444652 23.55078125 42.5625 C16.71562605 46.986151 7.42064916 45 0 45 C0 30.15 0 15.3 0 0 Z " fill="#F7F7F7" transform="translate(559,714)"/>
<path d="M0 0 C4.62 0 9.24 0 14 0 C14 22.11 14 44.22 14 67 C9.38 67 4.76 67 0 67 C0 44.89 0 22.78 0 0 Z " fill="#2A2627" transform="translate(1087,703)"/>
<path d="M0 0 C4.62 0 9.24 0 14 0 C14 22.11 14 44.22 14 67 C9.38 67 4.76 67 0 67 C0 44.89 0 22.78 0 0 Z " fill="#2A2627" transform="translate(959,703)"/>
<path d="M0 0 C3.37586685 -0.10831658 6.74823231 -0.18746727 10.125 -0.25 C11.07632813 -0.28351562 12.02765625 -0.31703125 13.0078125 -0.3515625 C18.93460528 -0.43387907 22.63572239 -0.21203537 27 4 C27.65625 6.25390625 27.65625 6.25390625 27.5 8.5625 C27.45359375 9.70912109 27.45359375 9.70912109 27.40625 10.87890625 C27 13 27 13 25 16 C19.79878857 18.44667578 14.74058956 18.23494377 9.125 18.125 C8.24585938 18.11597656 7.36671875 18.10695313 6.4609375 18.09765625 C4.3071729 18.07424577 2.15354986 18.0383801 0 18 C0 12.06 0 6.12 0 0 Z " fill="#F0F0F0" transform="translate(810,714)"/>
<path d="M0 0 C3.37586685 -0.10831658 6.74823231 -0.18746727 10.125 -0.25 C11.07632812 -0.28351562 12.02765625 -0.31703125 13.0078125 -0.3515625 C18.93460528 -0.43387907 22.63572239 -0.21203537 27 4 C27.65625 6.25390625 27.65625 6.25390625 27.5 8.5625 C27.45359375 9.70912109 27.45359375 9.70912109 27.40625 10.87890625 C27 13 27 13 25 16 C19.79878857 18.44667578 14.74058956 18.23494377 9.125 18.125 C8.24585938 18.11597656 7.36671875 18.10695313 6.4609375 18.09765625 C4.3071729 18.07424577 2.15354986 18.0383801 0 18 C0 12.06 0 6.12 0 0 Z " fill="#F0F0F0" transform="translate(343,714)"/>
<path d="M0 0 C0.66 0 1.32 0 2 0 C3.33871641 3.45627381 4.67005392 6.91534297 6 10.375 C6.3815625 11.35984375 6.763125 12.3446875 7.15625 13.359375 C7.5171875 14.30039062 7.878125 15.24140625 8.25 16.2109375 C8.58515625 17.08024902 8.9203125 17.94956055 9.265625 18.84521484 C10 21 10 21 10 23 C4.39 23 -1.22 23 -7 23 C-5.875 15.125 -5.875 15.125 -4.58984375 11.81640625 C-4.32236328 11.11708984 -4.05488281 10.41777344 -3.77929688 9.69726562 C-3.36260742 8.64055664 -3.36260742 8.64055664 -2.9375 7.5625 C-2.65583984 6.83095703 -2.37417969 6.09941406 -2.08398438 5.34570312 C-1.39586753 3.56126454 -0.69885394 1.78026095 0 0 Z " fill="#F6F6F6" transform="translate(484,720)"/>
</svg>
